<svg xmlns="http://www.w3.org/2000/svg" viewBox="0 0 100 100" width="100%" height="100%">
  <circle cx="50" cy="50" r="48" fill="#111827" stroke="#6366F1" stroke-width="2" />
  <!-- Ears -->
  <polygon points="30,40 18,15 40,28" fill="#94A3B8" />
  <polygon points="70,40 82,15 60,28" fill="#94A3B8" />
  <polygon points="32,38 23,19 39,29" fill="#FF8A8A" />
  <polygon points="68,38 77,19 61,29" fill="#FF8A8A" />
  <!-- Head -->
  <circle cx="50" cy="52" r="28" fill="#F1F5F9" />
  <!-- Eyes -->
  <circle cx="40" cy="48" r="3.5" fill="#111827" />
  <circle cx="60" cy="48" r="3.5" fill="#111827" />
  <circle cx="39" cy="46" r="1" fill="#FFFFFF" />
  <circle cx="59" cy="46" r="1" fill="#FFFFFF" />
  <!-- Nose/Mouth -->
  <polygon points="50,54 47,51 53,51" fill="#FF8A8A" />
  <path d="M 46 58 Q 50 62 54 58" fill="none" stroke="#94A3B8" stroke-width="2" stroke-linecap="round" />
  <!-- Headphones -->
  <path d="M 22 52 A 28 28 0 0 1 78 52" fill="none" stroke="#6366F1" stroke-width="5" />
  <circle cx="20" cy="54" r="9" fill="#EF4444" stroke="#6366F1" stroke-width="2" />
  <circle cx="80" cy="54" r="9" fill="#EF4444" stroke="#6366F1" stroke-width="2" />
</svg>
