<svg xmlns="http://www.w3.org/2000/svg" viewBox="0 0 100 100" width="100%" height="100%">
  <circle cx="50" cy="50" r="48" fill="#0A0F1E" stroke="#6366F1" stroke-width="2" />
  <!-- Ears -->
  <polygon points="32,38 18,10 40,24" fill="#EA580C" />
  <polygon points="68,38 82,10 60,24" fill="#EA580C" />
  <polygon points="33,35 23,17 38,25" fill="#F1F5F9" />
  <polygon points="67,35 77,17 62,25" fill="#F1F5F9" />
  <!-- Face/Muzzle -->
  <polygon points="50,75 22,44 78,44" fill="#EA580C" />
  <polygon points="50,75 35,44 65,44" fill="#F1F5F9" />
  <polygon points="50,75 46,70 54,70" fill="#111827" />
  <!-- Eyes -->
  <ellipse cx="38" cy="46" rx="4" ry="2.5" fill="#111827" />
  <ellipse cx="62" cy="46" rx="4" ry="2.5" fill="#111827" />
  <circle cx="39" cy="45" r="1" fill="#FFFFFF" />
  <circle cx="63" cy="45" r="1" fill="#FFFFFF" />
  <!-- Little blue necktie -->
  <polygon points="50,77 47,82 50,90 53,82" fill="#2563EB" />
  <rect x="45" y="74" width="10" height="4" fill="#2563EB" />
</svg>
